<svg width="20" height="20" viewBox="0 0 20 20" fill="none" xmlns="http://www.w3.org/2000/svg">
<path d="M10 13.3333C9.34073 13.3333 8.69626 13.1378 8.1481 12.7716C7.59994 12.4053 7.17269 11.8847 6.9204 11.2756C6.66811 10.6665 6.6021 9.9963 6.73072 9.3497C6.85933 8.7031 7.1768 8.10915 7.64298 7.64298C8.10915 7.1768 8.7031 6.85933 9.3497 6.73072C9.9963 6.6021 10.6665 6.66811 11.2756 6.9204C11.8847 7.1727 12.4053 7.59994 12.7716 8.1481C13.1378 8.69627 13.3333 9.34073 13.3333 10C13.3333 10.8841 12.9821 11.7319 12.357 12.357C11.7319 12.9821 10.8841 13.3333 10 13.3333ZM4.73583 13.3333H0.833333C0.61232 13.3333 0.400358 13.2455 0.244078 13.0893C0.0877974 12.933 0 12.721 0 12.5C0.00789653 11.3034 0.443104 10.149 1.22713 9.24507C2.01116 8.34109 3.09239 7.74702 4.27583 7.57C4.41335 7.55073 4.5535 7.56614 4.68355 7.61481C4.81361 7.66348 4.92943 7.74389 5.02051 7.84871C5.11159 7.95353 5.17502 8.07944 5.20506 8.21502C5.2351 8.35059 5.23078 8.49152 5.1925 8.625C5.0648 9.07217 5.00001 9.53495 5 10C5.00024 10.7415 5.16713 11.4734 5.48833 12.1417C5.54875 12.2685 5.57611 12.4086 5.56788 12.5488C5.55965 12.6891 5.51609 12.825 5.44125 12.9439C5.36642 13.0628 5.26273 13.1608 5.13984 13.2289C5.01694 13.297 4.87883 13.3329 4.73833 13.3333H4.73583ZM14.1667 20H5.83333C5.61232 20 5.40036 19.9122 5.24408 19.7559C5.0878 19.5996 5 19.3877 5 19.1667C5 17.8406 5.52678 16.5688 6.46447 15.6311C7.40215 14.6935 8.67392 14.1667 10 14.1667C11.3261 14.1667 12.5979 14.6935 13.5355 15.6311C14.4732 16.5688 15 17.8406 15 19.1667C15 19.3877 14.9122 19.5996 14.7559 19.7559C14.5996 19.9122 14.3877 20 14.1667 20ZM15 6.66667C14.3407 6.66667 13.6963 6.47117 13.1481 6.1049C12.5999 5.73863 12.1727 5.21803 11.9204 4.60895C11.6681 3.99986 11.6021 3.32964 11.7307 2.68303C11.8593 2.03643 12.1768 1.44249 12.643 0.976312C13.1092 0.510137 13.7031 0.192668 14.3497 0.0640506C14.9963 -0.0645668 15.6665 0.00144427 16.2756 0.253736C16.8847 0.506029 17.4053 0.93327 17.7716 1.48143C18.1378 2.0296 18.3333 2.67406 18.3333 3.33334C18.3333 4.21739 17.9821 5.06524 17.357 5.69036C16.7319 6.31548 15.8841 6.66667 15 6.66667ZM5 6.66667C4.34073 6.66667 3.69626 6.47117 3.1481 6.1049C2.59994 5.73863 2.17269 5.21803 1.9204 4.60895C1.66811 3.99986 1.6021 3.32964 1.73072 2.68303C1.85933 2.03643 2.1768 1.44249 2.64298 0.976312C3.10915 0.510137 3.7031 0.192668 4.3497 0.0640506C4.9963 -0.0645668 5.66652 0.00144427 6.27561 0.253736C6.8847 0.506029 7.40529 0.93327 7.77156 1.48143C8.13784 2.0296 8.33333 2.67406 8.33333 3.33334C8.33333 4.21739 7.98214 5.06524 7.35702 5.69036C6.7319 6.31548 5.88405 6.66667 5 6.66667ZM19.1667 13.3333H15.2642C15.1237 13.3329 14.9856 13.297 14.8627 13.2289C14.7398 13.1608 14.6361 13.0628 14.5612 12.9439C14.4864 12.825 14.4429 12.6891 14.4346 12.5488C14.4264 12.4086 14.4538 12.2685 14.5142 12.1417C14.8345 11.4732 15.0005 10.7413 15 10C14.9986 9.53476 14.9324 9.07197 14.8033 8.625C14.7648 8.49114 14.7605 8.34977 14.7907 8.2138C14.821 8.07783 14.8848 7.95161 14.9764 7.84667C15.068 7.74174 15.1844 7.66143 15.315 7.6131C15.4457 7.56477 15.5863 7.54995 15.7242 7.57C16.9076 7.74702 17.9888 8.34109 18.7729 9.24507C19.5569 10.149 19.9921 11.3034 20 12.5C20 12.721 19.9122 12.933 19.7559 13.0893C19.5996 13.2455 19.3877 13.3333 19.1667 13.3333Z" fill="black"/>
</svg>
