<svg width="17" height="20" viewBox="0 0 17 20" fill="none" xmlns="http://www.w3.org/2000/svg">
<path d="M10 5.83333V0.383333C10.7709 0.674446 11.4711 1.12609 12.0542 1.70833L14.9575 4.61333C15.5404 5.19573 15.9924 5.89575 16.2833 6.66667H10.8333C10.6123 6.66667 10.4004 6.57887 10.2441 6.42259C10.0878 6.26631 10 6.05435 10 5.83333ZM16.6667 8.7375V15.8333C16.6653 16.938 16.2259 17.997 15.4448 18.7782C14.6637 19.5593 13.6047 19.9987 12.5 20H4.16667C3.062 19.9987 2.00296 19.5593 1.22185 18.7782C0.440735 17.997 0.00132321 16.938 0 15.8333V4.16667C0.00132321 3.062 0.440735 2.00296 1.22185 1.22185C2.00296 0.440735 3.062 0.00132321 4.16667 0L7.92917 0C8.065 0 8.19917 0.0108333 8.33333 0.02V5.83333C8.33333 6.49637 8.59673 7.13226 9.06557 7.6011C9.53441 8.06994 10.1703 8.33333 10.8333 8.33333H16.6467C16.6558 8.4675 16.6667 8.60167 16.6667 8.7375ZM10 15.8333C10 15.6123 9.9122 15.4004 9.75592 15.2441C9.59964 15.0878 9.38768 15 9.16667 15H5C4.77899 15 4.56703 15.0878 4.41074 15.2441C4.25446 15.4004 4.16667 15.6123 4.16667 15.8333C4.16667 16.0543 4.25446 16.2663 4.41074 16.4226C4.56703 16.5789 4.77899 16.6667 5 16.6667H9.16667C9.38768 16.6667 9.59964 16.5789 9.75592 16.4226C9.9122 16.2663 10 16.0543 10 15.8333ZM12.5 12.5C12.5 12.279 12.4122 12.067 12.2559 11.9107C12.0996 11.7545 11.8877 11.6667 11.6667 11.6667H5C4.77899 11.6667 4.56703 11.7545 4.41074 11.9107C4.25446 12.067 4.16667 12.279 4.16667 12.5C4.16667 12.721 4.25446 12.933 4.41074 13.0893C4.56703 13.2455 4.77899 13.3333 5 13.3333H11.6667C11.8877 13.3333 12.0996 13.2455 12.2559 13.0893C12.4122 12.933 12.5 12.721 12.5 12.5Z" fill="black"/>
</svg>
