<svg width="67" height="73" viewBox="0 0 67 73" fill="none" xmlns="http://www.w3.org/2000/svg">
<path d="M58.902 55.6628C56.9555 56.5021 53.471 57.5148 47.7021 59.0056C42.2523 60.4101 38.6882 61.2161 36.4698 61.487C35.3586 61.6227 34.5971 61.6224 34.1083 61.5026C33.8652 61.4431 33.6972 61.3557 33.5867 61.2478C33.4784 61.142 33.4188 61.0103 33.4028 60.8469C33.396 60.7434 33.4623 60.603 33.6438 60.424C33.822 60.2484 34.0929 60.0538 34.4482 59.8443C35.1578 59.4258 36.186 58.958 37.4333 58.4688C39.9265 57.4909 43.2803 56.4333 46.6748 55.5188C50.0693 54.6042 53.5011 53.8337 56.1501 53.4292C57.4753 53.2269 58.6007 53.1167 59.4262 53.1249C59.8395 53.1291 60.1724 53.1629 60.4158 53.2271C60.6638 53.2926 60.7938 53.3831 60.8414 53.4794C60.9316 53.6692 60.9712 53.8439 60.9573 54.0106C60.9434 54.1766 60.8755 54.3439 60.7353 54.518C60.4508 54.8714 59.8776 55.2421 58.902 55.6628Z" fill="#BD2298" stroke="black" stroke-width="0.2"/>
<path d="M10.1282 22.8523L10.1282 22.8521C10.4361 20.3268 10.694 18.383 10.9759 16.8752C11.258 15.3664 11.5628 14.3022 11.9612 13.5322C12.3574 12.7664 12.8464 12.2912 13.5027 11.9599C14.1641 11.626 14.9994 11.4361 16.0945 11.2509C16.9059 11.1136 17.4951 11.0667 17.9078 11.2033C18.1095 11.2701 18.268 11.3807 18.3904 11.5487C18.5141 11.7185 18.605 11.9525 18.6603 12.2717C18.7713 12.9125 18.7347 13.869 18.5652 15.2654C18.3961 16.6591 18.0961 18.4805 17.6861 20.8461C16.5703 27.2612 15.7083 31.1159 14.6911 33.2782C14.1834 34.3575 13.6433 35.0011 13.0265 35.3352C12.4116 35.6682 11.7034 35.7029 10.838 35.5267C10.372 35.4297 10.0277 35.2433 9.78144 34.8692C9.53104 34.4887 9.37406 33.9024 9.31654 32.9869C9.20151 31.1561 9.48639 28.0707 10.1282 22.8523Z" fill="#BD2298" stroke="black" stroke-width="0.2"/>
<path d="M25.0577 48.1359L25.0571 48.136L35.6469 27.8491C37.1886 25.6668 38.2117 24.3833 39.2387 23.582C40.2597 22.7854 41.29 22.4615 42.8607 22.2171C43.3878 22.1387 43.8414 22.0867 44.2207 22.0711C44.6014 22.0555 44.9 22.0769 45.1202 22.1411C45.3382 22.2046 45.4689 22.3065 45.5344 22.4468C45.6018 22.5911 45.6103 22.7972 45.5352 23.0894C45.3846 23.6754 44.9153 24.5434 44.0923 25.7882C43.2717 27.0295 42.1073 28.6342 40.5774 30.6899C35.0063 38.1029 31.7392 42.3643 29.5523 44.8258C27.3652 47.2875 26.2741 47.9302 25.0577 48.1359Z" fill="#BD2298" stroke="black" stroke-width="0.2"/>
</svg>
