<svg width="95" height="97" viewBox="0 0 95 97" fill="none" xmlns="http://www.w3.org/2000/svg">
<path d="M67.9948 61.4886C60.8838 56.836 56.2917 54.8501 51.6938 54.4337C47.0151 54.0079 42.2649 55.189 34.756 58.6494C39.0403 51.574 40.7488 46.987 40.8522 42.294C40.9523 37.6784 39.4984 32.8899 35.674 25.3021C42.785 29.9547 47.3771 31.9406 51.975 32.357C56.6537 32.7828 61.4061 31.5998 68.9129 28.1413C64.6286 35.2167 62.9201 39.8037 62.8166 44.4968C62.7165 49.1123 64.1705 53.9008 67.9948 61.4886Z" fill="#0484C9"/>
<path d="M37.7502 27.6268C48.8831 34.4553 55.285 34.91 66.9547 29.8904C60.6547 40.9227 60.3856 47.335 65.9191 59.1642C54.7862 52.3357 48.3844 51.8809 36.7146 56.9005C43.0147 45.8683 43.2837 39.456 37.7502 27.6268ZM34.9323 24.4715C34.6968 24.6818 34.5815 25.0224 34.7473 25.3533C41.9707 39.5786 41.8349 45.4356 34.0336 58.3017C33.6179 58.985 34.2964 59.7448 35.0222 59.4087C48.685 53.1058 54.5182 53.6285 67.8418 62.406C68.1479 62.6079 68.5033 62.5318 68.7388 62.3215C68.9743 62.1111 69.0896 61.7705 68.9239 61.4397C61.7005 47.2143 61.8362 41.3573 69.6375 28.4913C70.0532 27.8079 69.3747 27.0482 68.6489 27.3843C54.9862 33.6871 49.1529 33.1644 35.8294 24.3869C35.5232 24.185 35.1678 24.2612 34.9323 24.4715Z" fill="#161616" fill-opacity="0.3"/>
<path d="M27.1321 51.4324C20.8722 47.5449 17.374 47.2921 10.8184 50.1459C14.3922 43.9533 14.535 40.4489 11.375 33.7929C17.6349 37.6804 21.1331 37.9332 27.6888 35.0794C24.1149 41.272 23.9743 44.7745 27.1321 51.4324Z" fill="#0484C9"/>
<path d="M13.1747 35.8038C17.74 38.2038 21.1126 38.4056 25.934 36.6465C23.6432 41.2392 23.4639 44.6131 25.3367 49.4177C20.7714 47.0177 17.3988 46.816 12.5773 48.575C14.8681 43.9823 15.0474 40.6085 13.1747 35.8038ZM10.022 32.2736C9.89464 32.3873 9.83041 32.5759 9.92087 32.7541C13.8664 40.5245 13.793 43.7223 9.53241 50.7516C9.30509 51.1249 9.67518 51.5393 10.0734 51.3574C17.5361 47.9135 20.7239 48.1988 28.0006 52.9943C28.1675 53.1042 28.3621 53.0617 28.4894 52.948C28.6167 52.8343 28.6809 52.6457 28.5905 52.4675C24.6449 44.697 24.7184 41.4993 28.979 34.4699C29.2063 34.0966 28.8362 33.6823 28.4379 33.8641C20.9753 37.308 17.7875 37.0228 10.5107 32.2273C10.3439 32.1173 10.1493 32.1599 10.022 32.2736Z" fill="#161616" fill-opacity="0.3"/>
<path d="M58.0764 86.0818C51.8165 82.1943 48.3183 81.9415 41.7627 84.7953C45.3365 78.6027 45.4772 75.1002 42.3194 68.4423C48.5793 72.3298 52.0775 72.5826 58.6331 69.7289C55.0593 75.9214 54.9186 79.4239 58.0764 86.0818Z" fill="#0484C9"/>
<path d="M44.119 70.4533C48.6843 72.8532 52.0569 73.055 56.8784 71.296C54.5876 75.8887 54.4083 79.2625 56.281 84.0671C51.7157 81.6672 48.3431 81.4654 43.5217 83.2244C45.8125 78.6317 45.9918 75.2579 44.119 70.4533ZM40.9663 66.923C40.839 67.0367 40.7748 67.2253 40.8652 67.4035C44.8108 75.174 44.7373 78.3717 40.4768 85.401C40.2494 85.7743 40.6195 86.1887 41.0178 86.0068C48.4805 82.563 51.6682 82.8482 58.945 87.6437C59.1118 87.7537 59.3064 87.7111 59.4337 87.5974C59.5611 87.4837 59.6253 87.2951 59.5348 87.1169C55.5893 79.3464 55.6627 76.1487 59.9233 69.1193C60.1506 68.7461 59.7805 68.3317 59.3823 68.5135C51.9196 71.9574 48.7318 71.6722 41.4551 66.8767C41.2882 66.7667 41.0936 66.8093 40.9663 66.923Z" fill="#161616" fill-opacity="0.3"/>
</svg>
