<svg width="35" height="52" viewBox="0 0 35 52" fill="none" xmlns="http://www.w3.org/2000/svg">
<path d="M20.6793 38.4889C20.3492 38.7486 19.6546 39.4081 18.7716 40.0444C18.5569 40.2078 18.3304 40.3774 18.1039 40.547C17.8807 40.7183 17.6336 40.8642 17.401 41.022C16.9264 41.3242 16.4887 41.6508 16.0662 41.8726C14.1732 43.0174 12.1549 43.9389 10.0846 44.7024C8.01113 45.4641 5.8796 46.0558 3.70284 46.4848C3.0196 46.5937 1.85052 46.7182 1.92625 47.5467C2.00256 48.4047 2.88386 48.831 4.1732 48.6549C7.27582 48.1405 10.2317 47.0812 13.1263 45.9886C15.2426 45.1791 17.2741 44.1182 19.1396 42.8244C21.0115 41.5341 22.747 40.0563 24.3633 38.4591C25.8145 37.0189 27.0924 35.4129 28.2611 33.7307C29.4057 32.0312 30.3734 30.2184 31.2294 28.3573C31.587 27.4637 31.9997 26.5918 32.2971 25.6779C32.4532 25.2229 32.6385 24.7755 32.7702 24.3114L33.1782 22.9261C33.6657 21.065 34.0544 19.1624 34.1775 17.2323C34.3223 15.5695 34.2454 13.8989 34.1086 12.2458L33.9486 11.0113C33.8876 10.6012 33.8529 10.1887 33.7655 9.78093C33.6021 8.96744 33.4832 8.1489 33.2717 7.34684C33.1816 6.96694 33.1244 6.54216 33.066 6.10417C32.9876 5.67204 32.8981 5.22967 32.7763 4.81573C32.6035 4.12692 32.1825 3.01796 31.8912 2.37756C31.7712 2.09857 31.5998 1.82934 31.5179 1.54185C31.1192 0.223185 30.7084 0.0243033 30.0185 0.828748C29.8642 1.00419 29.5744 1.01355 29.562 1.35855C29.5615 1.37498 29.5588 1.40289 29.5567 1.41433C29.4746 1.9641 29.5832 2.42525 29.7616 2.86588C29.9133 3.31707 30.128 3.75243 30.2794 4.21183C31.6972 8.73665 32.1469 13.5625 31.5842 18.2716C31.2264 21.154 30.5436 24.0181 29.362 26.6605C29.0579 27.3948 28.597 28.0479 28.3201 28.8012L28.3271 28.7884C28.1476 29.1636 27.9179 29.5156 27.7029 29.8715C27.4847 30.2256 27.2793 30.5867 27.0675 30.9444C25.443 33.6466 23.2505 36.1313 21.043 38.2058C20.9656 38.3018 20.8133 38.3736 20.6793 38.4889Z" fill="#BD2298"/>
<path d="M5.10976 46.2936C5.19982 46.1669 5.50605 45.6975 5.72665 45.4159C6.24148 44.7713 6.73723 44.108 7.01971 43.2907C7.06371 43.1639 7.19014 42.9858 6.52359 42.4883C5.82975 41.9717 5.3363 41.7863 5.22718 41.9864C4.96493 42.4673 4.79541 43.0238 4.34892 43.3664C3.69943 43.8664 3.31896 44.5717 2.80559 45.1751C2.70087 45.2981 2.60259 45.4245 2.50431 45.551L1.98978 46.2334C1.63923 46.6996 1.29367 47.1643 0.921702 47.6313L1.21627 47.8589C1.68362 48.2227 2.12546 48.6102 2.61569 49.0241L2.79932 49.1787C2.85682 49.2269 2.94163 49.294 2.95572 49.3142L3.13875 49.4853C3.26315 49.595 3.39253 49.7033 3.52895 49.7986C4.00246 50.128 4.59389 50.2873 5.10553 50.5622C5.22494 50.6273 5.26808 50.8476 5.39863 50.923C5.50659 50.986 5.6753 51.099 5.81465 51.1122C5.87538 51.116 5.94286 51.1151 5.96721 51.1702C6.07665 51.4225 6.30281 51.2151 6.79093 50.3969C6.89771 50.2165 7.07459 50.0073 7.11125 49.8556C7.11477 49.8492 7.11684 49.8377 7.11713 49.8295C7.31014 49.2606 7.01327 49.3751 6.87597 49.2583C6.20032 48.693 5.49003 48.1759 4.79356 47.6411L4.46823 47.4008L4.33676 47.3041L4.30479 47.2782C4.26987 47.2424 4.23848 47.2002 4.27456 47.1571C4.29011 47.1362 4.39484 47.1054 4.38164 47.1066C4.38164 47.1066 4.37342 47.1063 4.35377 47.104C4.40041 47.0876 4.47286 47.0852 4.47286 47.0852C4.47286 47.0852 4.47961 47.0805 4.48284 47.0823L4.49106 47.0826L4.49428 47.0843C4.49252 47.0876 4.4943 47.0843 4.50984 47.0635C4.69583 46.83 4.87215 46.5911 5.0109 46.3444C5.03965 46.3224 5.09069 46.3209 5.10976 46.2936Z" fill="#BD2298"/>
</svg>
