<svg width="18" height="19" viewBox="0 0 18 19" fill="none" xmlns="http://www.w3.org/2000/svg">
<g clip-path="url(#clip0_1049_1468)">
<path d="M17.9999 9.82122C17.9999 4.85074 13.9704 0.821289 8.99994 0.821289C4.02945 0.821289 0 4.85074 0 9.82122C0 14.0418 2.9059 17.5835 6.82591 18.5562V12.5716H4.97012V9.82122H6.82591V8.63611C6.82591 5.57289 8.21226 4.15306 11.2197 4.15306C11.7899 4.15306 12.7738 4.26502 13.1763 4.37662V6.8696C12.9639 6.84728 12.5949 6.83613 12.1366 6.83613C10.661 6.83613 10.0907 7.3952 10.0907 8.84851V9.82122H13.0305L12.5254 12.5716H10.0907V18.7553C14.5471 18.2171 18.0002 14.4227 18.0002 9.82122H17.9999Z" fill="#0866FF"/>
<path d="M12.525 12.5714L13.0301 9.82099H10.0903V8.84828C10.0903 7.39497 10.6606 6.83589 12.1362 6.83589C12.5945 6.83589 12.9635 6.84705 13.1759 6.86937V4.37639C12.7734 4.26443 11.7895 4.15283 11.2193 4.15283C8.21186 4.15283 6.82551 5.57266 6.82551 8.63588V9.82099H4.96973V12.5714H6.82551V18.556C7.52175 18.7288 8.25002 18.8209 8.99954 18.8209C9.36853 18.8209 9.73249 18.7982 10.09 18.755V12.5714H12.5246H12.525Z" fill="white"/>
</g>
<defs>
<clipPath id="clip0_1049_1468">
<rect width="17.9999" height="17.9999" fill="white" transform="translate(0 0.821289)"/>
</clipPath>
</defs>
</svg>
