<svg width="18" height="19" viewBox="0 0 18 19" fill="none" xmlns="http://www.w3.org/2000/svg">
<path d="M9.18359 7.51367V11.0702H14.1261C13.909 12.214 13.2578 13.1825 12.281 13.8337L15.2615 16.1463C16.998 14.5434 17.9999 12.189 17.9999 9.39222C17.9999 8.74103 17.9415 8.11482 17.8329 7.51377L9.18359 7.51367Z" fill="#4285F4"/>
<path d="M4.03702 10.9316L3.3648 11.4462L0.985352 13.2996C2.49648 16.2967 5.59367 18.3673 9.18363 18.3673C11.6632 18.3673 13.742 17.5491 15.2615 16.1465L12.281 13.8339C11.4628 14.3849 10.4192 14.7189 9.18363 14.7189C6.79588 14.7189 4.76718 13.1076 4.04078 10.9369L4.03702 10.9316Z" fill="#34A853"/>
<path d="M0.985089 5.06787C0.358962 6.30343 0 7.69768 0 9.18372C0 10.6698 0.358962 12.064 0.985089 13.2996C0.985089 13.3079 4.04081 10.9285 4.04081 10.9285C3.85714 10.3775 3.74857 9.79316 3.74857 9.18363C3.74857 8.57409 3.85714 7.98972 4.04081 7.43871L0.985089 5.06787Z" fill="#FBBC05"/>
<path d="M9.18382 3.65673C10.5363 3.65673 11.7386 4.12424 12.6987 5.02591L15.3285 2.39611C13.7339 0.910065 11.6635 0 9.18382 0C5.59385 0 2.49648 2.06212 0.985352 5.06767L4.04098 7.4387C4.76728 5.26801 6.79607 3.65673 9.18382 3.65673Z" fill="#EA4335"/>
</svg>
