<svg width="18" height="18" viewBox="0 0 18 18" fill="none" xmlns="http://www.w3.org/2000/svg">
<g clip-path="url(#clip0_1049_1466)">
<path d="M8.99994 17.8211C13.9705 17.8211 17.9999 13.9138 17.9999 9.09391C17.9999 4.274 13.9705 0.366699 8.99994 0.366699C4.02941 0.366699 0 4.274 0 9.09391C0 13.9138 4.02941 17.8211 8.99994 17.8211Z" fill="url(#paint0_linear_1049_1466)"/>
<path fill-rule="evenodd" clip-rule="evenodd" d="M4.07425 9.00142C6.69791 7.89297 8.44744 7.16221 9.32281 6.80915C11.8222 5.80107 12.3415 5.62596 12.68 5.62018C12.7545 5.61891 12.921 5.6368 13.0288 5.72164C13.1198 5.79329 13.1449 5.89006 13.1569 5.95799C13.1689 6.02591 13.1838 6.18064 13.1719 6.30155C13.0365 7.68153 12.4504 11.0304 12.1523 12.576C12.0261 13.23 11.7777 13.4492 11.5372 13.4707C11.0146 13.5173 10.6177 13.1358 10.1115 12.814C9.31939 12.3105 8.87189 11.9971 8.10301 11.5057C7.21444 10.9379 7.79046 10.6258 8.29686 10.1158C8.42939 9.98235 10.7322 7.95127 10.7767 7.76701C10.7823 7.74397 10.7875 7.65808 10.7349 7.61272C10.6822 7.56736 10.6046 7.58287 10.5485 7.59521C10.4691 7.61269 9.20366 8.42374 6.75229 10.0283C6.39311 10.2675 6.06777 10.384 5.77628 10.3779C5.45494 10.3712 4.8368 10.2017 4.37728 10.0569C3.81366 9.87923 3.3657 9.7853 3.40471 9.48358C3.42503 9.32643 3.64821 9.16571 4.07425 9.00142Z" fill="white"/>
</g>
<defs>
<linearGradient id="paint0_linear_1049_1466" x1="8.99994" y1="0.366699" x2="8.99994" y2="17.6917" gradientUnits="userSpaceOnUse">
<stop stop-color="#2AABEE"/>
<stop offset="1" stop-color="#229ED9"/>
</linearGradient>
<clipPath id="clip0_1049_1466">
<rect width="17.9999" height="17.4544" fill="white" transform="translate(0 0.366699)"/>
</clipPath>
</defs>
</svg>
