<svg width="18" height="19" viewBox="0 0 18 19" fill="none" xmlns="http://www.w3.org/2000/svg">
<path d="M0 18.8212L1.26525 14.199C0.484499 12.846 0.0742498 11.3123 0.0749998 9.73952C0.0772498 4.82253 4.07849 0.821289 8.99473 0.821289C11.3805 0.822039 13.62 1.75129 15.3045 3.43728C16.9882 5.12328 17.9152 7.36427 17.9145 9.74777C17.9122 14.6655 13.911 18.6667 8.99473 18.6667C7.50223 18.666 6.03149 18.2917 4.72874 17.5808L0 18.8212ZM4.94774 15.966C6.20474 16.7123 7.40473 17.1593 8.99173 17.16C13.0777 17.16 16.4062 13.8345 16.4085 9.74627C16.41 5.64978 13.0972 2.32879 8.99773 2.32729C4.90874 2.32729 1.5825 5.65278 1.581 9.74027C1.58025 11.409 2.06925 12.6585 2.89049 13.9658L2.14125 16.7018L4.94774 15.966ZM13.488 11.868C13.4325 11.775 13.284 11.7195 13.0605 11.6078C12.8377 11.496 11.742 10.9568 11.5372 10.8825C11.3332 10.8083 11.1847 10.7708 11.0355 10.9943C10.887 11.217 10.4595 11.7195 10.3297 11.868C10.2 12.0165 10.0695 12.0353 9.84673 11.9235C9.62398 11.8118 8.90548 11.577 8.05423 10.8173C7.39198 10.2263 6.94423 9.49652 6.81448 9.27302C6.68473 9.05027 6.80098 8.92952 6.91198 8.81852C7.01248 8.71877 7.13473 8.55827 7.24648 8.42777C7.35973 8.29877 7.39648 8.20577 7.47148 8.05652C7.54573 7.90802 7.50898 7.77752 7.45273 7.66577C7.39648 7.55477 6.95098 6.45753 6.76573 6.01128C6.58424 5.57703 6.40049 5.63553 6.26399 5.62878L5.83649 5.62128C5.68799 5.62128 5.44649 5.67678 5.24249 5.90028C5.03849 6.12378 4.46249 6.66228 4.46249 7.75952C4.46249 8.85677 5.26124 9.91652 5.37224 10.065C5.48399 10.2135 6.94348 12.465 9.17923 13.4303C9.71098 13.6598 10.1265 13.797 10.4497 13.8998C10.9837 14.0693 11.4697 14.0453 11.8537 13.9883C12.282 13.9245 13.1722 13.449 13.3582 12.9285C13.5442 12.4073 13.5442 11.961 13.488 11.868Z" fill="#25D366"/>
</svg>
