<svg width="67" height="72" viewBox="0 0 67 72" fill="none" xmlns="http://www.w3.org/2000/svg">
<path d="M58.9084 55.4958C56.9618 56.3351 53.4773 57.3478 47.7084 58.8386C42.2586 60.2432 38.6945 61.0491 36.4761 61.32C35.365 61.4557 34.6035 61.4554 34.1147 61.3356C33.8715 61.2761 33.7035 61.1887 33.5931 61.0808C33.4847 60.975 33.4251 60.8433 33.4091 60.6799C33.4024 60.5765 33.4686 60.436 33.6502 60.257C33.8284 60.0814 34.0992 59.8868 34.4545 59.6773C35.1642 59.2588 36.1924 58.791 37.4396 58.3018C39.9328 57.3239 43.2866 56.2663 46.6811 55.3518C50.0757 54.4372 53.5074 53.6667 56.1565 53.2622C57.4816 53.0599 58.607 52.9497 59.4326 52.958C59.8459 52.9621 60.1787 52.9959 60.4221 53.0601C60.6702 53.1256 60.8001 53.2161 60.8477 53.3124C60.938 53.5022 60.9776 53.6769 60.9636 53.8436C60.9497 54.0096 60.8819 54.1769 60.7416 54.351C60.4572 54.7044 59.884 55.0751 58.9084 55.4958Z" fill="#BD2298" stroke="black" stroke-width="0.2"/>
<path d="M10.1351 22.6848L10.1351 22.6847C10.443 20.1593 10.7008 18.2155 10.9827 16.7077C11.2648 15.1989 11.5696 14.1348 11.968 13.3647C12.3643 12.5989 12.8532 12.1237 13.5095 11.7924C14.171 11.4586 15.0062 11.2686 16.1013 11.0834C16.9128 10.9462 17.502 10.8992 17.9147 11.0358C18.1164 11.1026 18.2749 11.2132 18.3973 11.3812C18.521 11.551 18.6118 11.7851 18.6671 12.1042C18.7781 12.745 18.7415 13.7015 18.5721 15.0979C18.4029 16.4916 18.1029 18.3131 17.6929 20.6787C16.5771 27.0938 15.7151 30.9484 14.698 33.1107C14.1903 34.19 13.6501 34.8336 13.0334 35.1677C12.4184 35.5008 11.7102 35.5354 10.8448 35.3592C10.3789 35.2623 10.0345 35.0759 9.78828 34.7017C9.53787 34.3213 9.38089 33.7349 9.32337 32.8194C9.20834 30.9887 9.49323 27.9033 10.1351 22.6848Z" fill="#BD2298" stroke="black" stroke-width="0.2"/>
<path d="M25.0646 47.9684L25.0639 47.9685C24.3027 48.1026 23.7746 48.0825 23.4396 47.9387C23.2749 47.868 23.1581 47.7679 23.0806 47.6409C23.0027 47.5131 22.9605 47.3511 22.9572 47.151C22.9506 46.7473 23.1022 46.2075 23.4022 45.5348C23.7011 44.8646 24.1425 44.0728 24.7044 43.1686C26.0625 40.9832 28.1118 38.1601 30.5239 34.8374C32.1084 32.6547 33.8494 30.2564 35.6537 27.6816C37.1955 25.4993 38.2186 24.2158 39.2455 23.4145C40.2665 22.6179 41.2969 22.294 42.8676 22.0497C43.3946 21.9712 43.8483 21.9192 44.2276 21.9036C44.6082 21.888 44.9069 21.9095 45.127 21.9736C45.3451 22.0371 45.4758 22.139 45.5412 22.2793C45.6086 22.4237 45.6171 22.6297 45.542 22.9219C45.3914 23.5079 44.9221 24.3759 44.0992 25.6207C43.2785 26.862 42.1141 28.4667 40.5842 30.5225C35.0131 37.9354 31.746 42.1968 29.5591 44.6583C27.372 47.12 26.2809 47.7627 25.0646 47.9684Z" fill="#BD2298" stroke="black" stroke-width="0.2"/>
</svg>
